<?xml version="1.0" encoding="UTF-8"?>
<svg width="232px" height="58px" enable-background="new 0 0 232 58" overflow="visible" version="1.1" viewBox="0 0 232 58" xml:space="preserve" xmlns="http://www.w3.org/2000/svg" xmlns:cc="http://creativecommons.org/ns#" xmlns:dc="http://purl.org/dc/elements/1.1/" xmlns:rdf="http://www.w3.org/1999/02/22-rdf-syntax-ns#"><metadata><rdf:RDF><cc:Work rdf:about=""><dc:format>image/svg+xml</dc:format><dc:type rdf:resource="http://purl.org/dc/dcmitype/StillImage"/><dc:title/></cc:Work></rdf:RDF></metadata>


<path d="m121.77 25.791c-1.2637 0.97656-3.4863 1.7207-4.623 1.0093-0.71582-0.44482-1.041-1.3091-1.0205-1.9185 0.088867-2.5103 2.5869-2.5752 4.374-3.0273 1.1191-0.28467 2.2578-0.58691 3.4219-0.7666-0.2832 1.5386-0.76953 3.457-2.0371 4.6182l-0.11523 0.084961zm12.379-13.72c-1.1582-2.2007-3.5312-3.1924-5.7246-3.7168-4.6113-0.7666-10.025-0.79199-14.188 1.0117-2.8486 1.2041-4.8232 3.999-5.0713 6.9858l9.8848-0.0097656c0.24023-0.70166 0.52734-1.3911 1.1367-1.9482 1.125-0.88428 2.8984-1.2964 4.252-0.63721 0.41992 0.28223 0.87891 0.95215 0.78711 1.4663-0.0078125 0.60693-0.47852 1.1665-0.98633 1.3989-3.2695 0.91895-6.7715 1.0439-10.09 1.7759-1.3994 0.22705-2.7539 0.59912-3.9697 1.2915-2.6699 1.3457-3.9385 3.9883-3.7188 6.9307 0.17969 2.1509 1.4297 4.3535 3.4766 5.2979 3.6318 1.8384 8.7666 1.3486 12.048-0.97656 0.13477 0.27979 0.064453 0.7666-0.080078 1.1367 0.023438-0.010254 10.367 0.019531 10.361 0-0.27539-0.79688-0.5332-1.4663-0.48438-2.4004l2.5293-12.231c0.42773-1.6836 0.76172-3.8765-0.16211-5.375"/>
<path d="m106.28 15.298-3.75 16.782h-9.2812l3.0361-14.769c0.14355-0.74707-0.31934-1.4961-0.92285-1.8735-0.93164-0.60938-2.377-0.33447-3.3125 0.080078-1.123 0.5542-1.918 1.7207-2.252 2.8872-1.0449 4.5732-3.0117 13.683-2.999 13.683-0.012695 0-9.5967 0.0048828-9.6035-0.0078125l3.04-14.467c0.44531-2.5771-2.2168-2.7969-3.291-2.6621-1.9648 0.41211-3.2578 2.5322-3.6143 3.7891l-2.9443 13.34h-9.7031l5.1797-23.453 8.8105 0.012207c0.18457 0.70459 0.042969 1.521 0.36816 2.1309 2.9502-2.3706 7.0127-3.7065 10.791-2.3828 1.3506 0.52197 2.7881 1.416 3.5752 2.7749 3.2305-2.418 7.1582-4.1313 11.446-2.9897 1.8623 0.4292 6.1992 2.4175 5.4268 7.126"/>
<path d="m179.94 20.963c-0.66016 2.1484-1.2793 5.2754-3.9863 5.5898-1.125 0.040039-2.3789-0.012207-3.1191-0.854-1.3965-1.6909-0.40234-4.1636-0.023438-6.0298 0.61523-2.0977 1.332-5.1348 4.082-5.3076 1.123-0.041992 2.1875 0.10498 2.9375 0.89941 1.3398 1.5508 0.44922 3.9263 0.10938 5.7021m9.3203-7.3906c-2.4512-4.4482-7.3477-5.5898-12.242-5.4277-5.5098 0.20996-11.215 2.9453-13.148 8.4526-1.0449 3.4941-2.3223 7.8374-0.24023 11.257 2.873 4.6377 8.4219 5.3623 13.604 4.8701 4.7598-0.49219 9.625-3.4141 11.422-8.125 1.1309-3.312 2.2246-7.7031 0.60547-11.027"/>
<path d="m160.49 11.396c0.88281 1.2666 0.98633 2.8428 0.83984 4.5264h-8.7852c0.10547-0.93701-0.083984-1.8857-0.92188-2.4033-4.748-1.8506-6.1367 1.9912-4.168 2.5728 4.084 1.6909 12.969 0.94434 12.793 8.2329-0.10742 3.6465-3.1465 6.626-6.4238 7.4604-9.459 2.4155-18.883 0.29443-18.873-4.6606-0.044922-1.1216-0.09375-2.6602 0.15039-3.3145l9.168-0.022461c-0.23633 1.124-0.12695 2.3452 0.85352 3.0068 1.5332 0.70947 3.5859 0.71973 4.9453-0.30176 0.42383-0.28223 0.51562-0.98193 0.56445-1.4038-0.083984-1.5864-1.8594-1.3638-2.8887-1.7886-3.8203-0.94922-9.2285-0.87891-10.33-5.6499-0.41016-2.5728 0.44531-4.8579 2.2227-6.5337 3.9316-3.1147 9.3027-3.417 14.432-2.9277 2.4238 0.3877 4.8457 1.1914 6.4219 3.207"/>
<path d="m206.19 0c0.015625 0.027344-6.7285 32.08-6.7285 32.08h-9.248l6.6426-32.068 9.334-0.012207z"/>
<path d="m47.109 25.791c-1.2627 0.97656-3.5518 1.646-4.623 1.0093-0.74707-0.44482-1.0195-1.3091-1.0195-1.9185 0-2.248 2.6504-2.5303 4.3848-3.0273 1.1074-0.31689 2.2461-0.58691 3.4121-0.7666-0.28711 1.5386-0.77539 3.457-2.042 4.6182l-0.1123 0.084961zm12.377-13.72c-1.1582-2.2007-3.5332-3.1924-5.7246-3.7168-4.6133-0.7666-10.025-0.79199-14.184 1.0117-2.8555 1.2041-4.8242 3.999-5.0723 6.9858l9.8848-0.0097656c0.2334-0.70166 0.52441-1.3911 1.1367-1.9482 1.123-0.88428 2.8965-1.2964 4.2471-0.63721 0.41895 0.28223 0.88281 0.95215 0.78809 1.4663-0.0048828 0.60693-0.4707 1.1665-0.98633 1.3989-3.2695 0.91895-6.7705 1.0439-10.088 1.7759-1.3994 0.22705-2.752 0.59912-3.9668 1.2915-2.668 1.3457-3.9365 3.9883-3.7168 6.9307 0.17383 2.1509 1.4248 4.3535 3.4756 5.2979 3.6289 1.8384 8.7627 1.3486 12.042-0.97656 0.13477 0.27979 0.066406 0.7666-0.076172 1.1367 0.019531-0.010254 10.365 0.019531 10.357 0-0.27539-0.79688-0.53223-1.4663-0.4834-2.4004l2.5303-12.234c0.42773-1.6812 0.76367-3.874-0.16406-5.3726"/>
<path d="m20.914 20.389c-0.56836 2.1855-1.248 4.5083-3.5674 5.7773-1.126 0.36719-2.4277 0.12988-3.2627-0.71729-1.1152-1.4058-0.87109-3.5518-0.49219-5.2349 0.70703-2.2383 1.8438-5.2705 4.5996-5.7275 0.98047-0.087402 1.7715 0.24512 2.418 0.84961 1.2559 1.3184 0.63281 3.8115 0.30469 5.0527m8.7676-9.0742c-0.69531-0.8916-1.5352-1.7832-2.4648-2.2979-3.6289-2.2183-8.6738-1.0244-11.81 1.3462-0.012695 0.0048828-0.17676-1.6909-0.20996-1.7109l-8.7598-0.029785-6.4375 31.541c0.036133 0.0097656 9.3203 0.040039 9.3125 0.041992l2.2324-9.9883c2.0879 2.0605 4.8848 3.0923 7.8213 2.9175 4.1084-0.21484 7.8057-3.0947 9.5049-6.7788 2.0205-4.291 3.4961-10.638 0.81055-15.041"/>
<path d="m224.3 55.704c0.58008 1.4663 1.8086 2.1978 3.7012 2.1978 1.1836 0 2.0781-0.26465 2.6777-0.79395 0.60156-0.52734 0.90234-1.1841 0.90234-1.9683 0-0.45947-0.12305-0.87158-0.37305-1.229-0.24609-0.35693-0.58594-0.63428-1.0137-0.82422-0.42969-0.19482-1.0781-0.42188-1.9629-0.68408-0.38672-0.10986-0.64453-0.22998-0.76953-0.36475-0.13086-0.1377-0.19531-0.30957-0.19531-0.51709 0-0.29443 0.13086-0.52686 0.39258-0.70166s0.58203-0.25977 0.95703-0.25977c0.83789 0 1.4375 0.35938 1.8047 1.084l1.5742-0.50488c-0.65625-1.3086-1.8008-1.9604-3.4297-1.9604-0.99805 0-1.7773 0.26709-2.3281 0.8042-0.55469 0.53711-0.82617 1.1689-0.82617 1.8906 0 0.46484 0.12305 0.87207 0.36719 1.2339 0.24805 0.35986 0.54883 0.62939 0.90625 0.80176 0.35742 0.1748 0.91211 0.36475 1.6562 0.56982 0.47266 0.13232 0.79492 0.26221 0.99219 0.40186 0.19141 0.13721 0.28711 0.32227 0.28711 0.55713 0 0.31445-0.14453 0.57178-0.42969 0.7793-0.28516 0.20459-0.67383 0.30469-1.1738 0.30469-0.98438 0-1.6484-0.41211-1.9668-1.2412l-1.75 0.42432zm-1.8281-2.8022c0.099609-0.63184 0.15625-1.0918 0.15625-1.3813 0-0.73438-0.2207-1.3062-0.66602-1.7183-0.44531-0.41504-0.96484-0.61719-1.5703-0.61719-0.41992 0-0.84766 0.11719-1.2891 0.35254-0.44727 0.24219-0.92773 0.84375-1.4414 1.8105l0.33008-1.9331h-1.6992l-1.3945 8.3071h1.834l0.625-3.7412c0.17773-1.0742 0.47656-1.8911 0.89844-2.4556 0.42578-0.56201 0.91992-0.84912 1.4746-0.84912 0.34961 0 0.60938 0.10986 0.78125 0.31982 0.17188 0.20703 0.25781 0.46436 0.25781 0.76904 0 0.27002-0.03125 0.58984-0.089844 0.96436l-0.84961 4.9927h1.8301l0.8125-4.8203zm-14.822 3.0469c-0.32422-0.32715-0.48828-0.83398-0.48828-1.5283 0-0.81445 0.16992-1.6338 0.50391-2.458 0.33984-0.82129 0.89648-1.2314 1.6777-1.2314 1.1094 0 1.6641 0.71729 1.6641 2.1558 0 0.8418-0.17578 1.6387-0.52148 2.4028-0.35352 0.7666-0.89258 1.1489-1.6367 1.1489-0.46875 0-0.87305-0.1626-1.1992-0.48975m4.1562 0.45996c0.74023-1.0195 1.1113-2.1309 1.1113-3.3345 0-1.1689-0.30664-2.103-0.93164-2.8003-0.61914-0.69434-1.4434-1.0391-2.4805-1.0391-1.2637 0-2.2793 0.48242-3.0566 1.4463-0.77734 0.97168-1.1719 2.1157-1.1719 3.437 0 0.81934 0.15625 1.5234 0.45508 2.1128 0.30078 0.59229 0.74414 1.0244 1.3164 1.2939 0.57422 0.27734 1.1719 0.40967 1.7852 0.40967 1.2363 0 2.2344-0.50928 2.9727-1.5259m-8.4375-6.9937h-1.918l-1.3926 8.3071h1.9277l1.3828-8.3071zm0.50195-2.96h-1.9219l-0.33203 1.9907h1.918l0.33594-1.9907zm-6.1914 9.7734c-0.23438 0.037598-0.43359 0.055176-0.59961 0.055176-0.78125 0-1.1738-0.26465-1.1738-0.79443 0-0.12744 0.035156-0.42188 0.11523-0.87891l0.61914-3.7017h1.7988l0.25-1.4937h-1.793l0.39062-2.3555-1.666 0.11768-0.49805 2.2378h-1.252l-0.25781 1.4937h1.2402l-0.63086 3.6768c-0.125 0.7417-0.18945 1.2388-0.18945 1.4961 0 0.49414 0.18555 0.91406 0.53906 1.2637 0.35547 0.34473 0.91992 0.51953 1.6836 0.51953 0.23047 0 0.61914-0.044922 1.1699-0.12744l0.25391-1.5088zm-5.8047-6.8135h-1.832l-0.58594 3.5093c-0.13477 0.81152-0.28906 1.4185-0.45312 1.8359-0.16406 0.41699-0.44141 0.78174-0.83008 1.0913-0.39258 0.31201-0.7793 0.46729-1.1543 0.46729-0.27539 0-0.49414-0.080078-0.6582-0.2373-0.16992-0.1626-0.25586-0.37207-0.25586-0.63721 0-0.10986 0.035156-0.40186 0.11523-0.87646l0.86328-5.1528h-1.8281l-0.79883 4.7856c-0.14453 0.83398-0.21484 1.3838-0.21484 1.6509 0 0.51221 0.16992 0.979 0.51953 1.4014 0.34961 0.41455 0.85352 0.62646 1.5059 0.62646 1.1797 0 2.1152-0.66162 2.8203-1.9707l-0.30469 1.8135h1.6992l1.3926-8.3071zm-9.3809-2.8452h-1.918l-1.8672 11.152h1.9238l1.8613-11.152zm-11.045 9.3789c-0.32422-0.32715-0.49219-0.83398-0.49219-1.5283 0-0.81445 0.17188-1.6338 0.51172-2.458 0.33594-0.82129 0.89453-1.2314 1.668-1.2314 1.1172 0 1.6699 0.71729 1.6699 2.1558 0 0.8418-0.17578 1.6387-0.52539 2.4028-0.34766 0.7666-0.88867 1.1489-1.6328 1.1489-0.4707 0-0.87305-0.1626-1.1992-0.48975m4.1602 0.45996c0.74023-1.0195 1.1094-2.1309 1.1094-3.3345 0-1.1689-0.30469-2.103-0.93359-2.8003-0.61523-0.69434-1.4453-1.0391-2.4824-1.0391-1.2598 0-2.2734 0.48242-3.0566 1.4463-0.7793 0.97168-1.1641 2.1157-1.1641 3.437 0 0.81934 0.14844 1.5234 0.45312 2.1128 0.30078 0.59229 0.74023 1.0244 1.3145 1.2939 0.57422 0.27734 1.1719 0.40967 1.7832 0.40967 1.2441 0 2.2324-0.50928 2.9766-1.5259m-11.959-10.108c-1.2676 0-2.2676 0.32471-3.002 0.97168-0.73828 0.64697-1.1094 1.481-1.1094 2.5029 0 0.59912 0.14062 1.1138 0.41602 1.5508 0.27344 0.43457 0.63086 0.7666 1.0684 0.99658 0.4375 0.22705 1.1035 0.47217 1.9883 0.72705 0.63867 0.17969 1.0645 0.31934 1.2734 0.41699 0.21484 0.097168 0.39258 0.24219 0.5293 0.42969 0.14062 0.18701 0.21094 0.40723 0.21094 0.66406 0 0.44971-0.18555 0.84668-0.56055 1.1992-0.36914 0.34961-0.93945 0.52441-1.6973 0.52441-1.332 0-2.2227-0.58203-2.6641-1.7485l-1.8223 0.64453c0.66992 1.856 2.1211 2.7773 4.3691 2.7773 1.4453 0 2.5469-0.37207 3.2988-1.1138 0.75391-0.74219 1.1367-1.6187 1.1367-2.6353 0-0.45215-0.099609-0.88184-0.29688-1.2915-0.19531-0.40674-0.49023-0.74658-0.89062-1.0186-0.39648-0.2749-0.81641-0.47266-1.2578-0.59473l-1.5293-0.45215c-0.53906-0.15234-0.92578-0.33203-1.1582-0.54199-0.23438-0.20996-0.34961-0.48193-0.34961-0.81152 0-0.42969 0.16992-0.79443 0.51562-1.0869 0.34766-0.28955 0.83008-0.43457 1.4512-0.43457 1.0195 0 1.7324 0.4624 2.125 1.3862l1.8301-0.67676c-0.70703-1.5908-2-2.3853-3.875-2.3853m-12.373 0.26953h-1.918l-1.8691 11.152h1.9219l1.8652-11.152zm-11.047 9.3789c-0.32812-0.32715-0.49023-0.83398-0.49023-1.5283 0-0.81445 0.16992-1.6338 0.50586-2.458 0.33789-0.82129 0.89648-1.2314 1.6758-1.2314 1.1074 0 1.6621 0.71729 1.6621 2.1558 0 0.8418-0.16992 1.6387-0.51953 2.4028-0.3457 0.7666-0.89453 1.1489-1.6328 1.1489-0.47461 0-0.875-0.1626-1.2012-0.48975m4.1582 0.45996c0.74219-1.0195 1.1133-2.1309 1.1133-3.3345 0-1.1689-0.31445-2.103-0.93359-2.8003-0.625-0.69434-1.4453-1.0391-2.4844-1.0391-1.2578 0-2.2793 0.48242-3.0547 1.4463-0.7793 0.97168-1.1641 2.1157-1.1641 3.437 0 0.81934 0.14648 1.5234 0.44922 2.1128 0.29883 0.59229 0.74023 1.0244 1.3164 1.2939 0.57227 0.27734 1.166 0.40967 1.7812 0.40967 1.2441 0 2.2344-0.50928 2.9766-1.5259m-16.08-0.70459c0.58008 1.4663 1.8125 2.1978 3.7012 2.1978 1.1797 0 2.0742-0.26465 2.6777-0.79395 0.60547-0.52734 0.9043-1.1841 0.9043-1.9683 0-0.45947-0.12695-0.87158-0.375-1.229-0.24414-0.35693-0.58398-0.63428-1.0078-0.82422-0.42969-0.19482-1.084-0.42188-1.9688-0.68408-0.38672-0.10986-0.64258-0.22998-0.77539-0.36475-0.125-0.1377-0.19336-0.30957-0.19336-0.51709 0-0.29443 0.13477-0.52686 0.39844-0.70166 0.25977-0.1748 0.58203-0.25977 0.95508-0.25977 0.83789 0 1.4375 0.35938 1.8027 1.084l1.582-0.50488c-0.66016-1.3086-1.8066-1.9604-3.4316-1.9604-1.002 0-1.7812 0.26709-2.332 0.8042-0.54688 0.53711-0.82422 1.1689-0.82422 1.8906 0 0.46484 0.12109 0.87207 0.36523 1.2339 0.24805 0.35986 0.54688 0.62939 0.91016 0.80176 0.35352 0.1748 0.91406 0.36475 1.6602 0.56982 0.46289 0.13232 0.78711 0.26221 0.98242 0.40186 0.19141 0.13721 0.28906 0.32227 0.28906 0.55713 0 0.31445-0.14062 0.57178-0.42969 0.7793-0.28711 0.20459-0.67969 0.30469-1.1699 0.30469-0.99414 0-1.6523-0.41211-1.9727-1.2412l-1.748 0.42432zm-6.7637 0.24463c-0.32422-0.32715-0.49023-0.83398-0.49023-1.5283 0-0.81445 0.16992-1.6338 0.50586-2.458 0.3418-0.82129 0.89648-1.2314 1.6777-1.2314 1.1094 0 1.666 0.71729 1.666 2.1558 0 0.8418-0.17188 1.6387-0.52539 2.4028-0.3457 0.7666-0.89062 1.1489-1.627 1.1489-0.47852 0-0.87695-0.1626-1.207-0.48975m4.1562 0.45996c0.74414-1.0195 1.1172-2.1309 1.1172-3.3345 0-1.1689-0.3125-2.103-0.93555-2.8003-0.62109-0.69434-1.4453-1.0391-2.4824-1.0391-1.2578 0-2.2754 0.48242-3.0547 1.4463-0.77734 0.97168-1.1641 2.1157-1.1641 3.437 0 0.81934 0.14453 1.5234 0.44922 2.1128 0.30078 0.59229 0.74023 1.0244 1.3164 1.2939 0.57812 0.27734 1.168 0.40967 1.7812 0.40967 1.2441 0 2.2324-0.50928 2.9727-1.5259m-11.035-1.8662c0.14648-0.92383 0.33789-1.5933 0.5625-1.9951 0.22852-0.40723 0.54297-0.72949 0.93848-0.9668 0.40527-0.24219 0.8291-0.3623 1.2842-0.3623 0.091797 0 0.22656 0.0048828 0.40625 0.015137l0.23633-2.0435c-0.10156-0.0024414-0.16992-0.0048828-0.2207-0.0048828-1.2031 0-2.1621 0.83203-2.877 2.4902l0.375-2.2603h-1.6836l-1.3887 8.3071h1.8359l0.53125-3.1797zm-9.9082-1.9404c0.32422-1.4087 1.0469-2.1104 2.1797-2.1104 1.0859 0 1.6279 0.70166 1.6279 2.1104h-3.8076zm3.4502 2.3428c-0.44629 1.0293-1.1006 1.5435-1.96 1.5435-0.55469 0-0.9873-0.18701-1.2852-0.57178-0.30469-0.37988-0.45703-0.88428-0.45703-1.5112 0-0.18213 0.019531-0.38721 0.056641-0.62158h5.7139c0.016602-0.23242 0.024414-0.44971 0.024414-0.65234 0-1.2139-0.28418-2.1704-0.85547-2.877-0.56836-0.70215-1.4121-1.0566-2.5215-1.0566-1.2363 0-2.2461 0.49219-3.0332 1.4658-0.78711 0.97168-1.1797 2.168-1.1797 3.5869 0 1.1113 0.30664 2.001 0.93164 2.6748 0.62891 0.66455 1.4834 0.99951 2.5703 0.99951 1.6562 0 2.8691-0.84424 3.6289-2.5454l-1.6338-0.43457zm-13.776-1.4736 2.2969-4.9482 0.87305 4.9482h-3.1699zm4.0029-6.9014h-2.4756l-5.3398 11.152h1.8828l1.2441-2.6948h4.041l0.46094 2.6948h2.2305l-2.0439-11.152zm-22.472 9.1167c0.58008 1.4663 1.8164 2.1982 3.707 2.1982 1.1777 0 2.0742-0.26709 2.6719-0.79443 0.60449-0.52686 0.90234-1.1836 0.90234-1.9683 0-0.46436-0.12109-0.87402-0.37012-1.231-0.24707-0.35498-0.58887-0.63232-1.0107-0.82227-0.42969-0.19434-1.084-0.42188-1.9668-0.68408-0.38867-0.10986-0.64453-0.22998-0.77148-0.36719-0.13086-0.13721-0.19531-0.30713-0.19531-0.51709 0-0.29199 0.13086-0.52441 0.39453-0.69922 0.25977-0.1748 0.58008-0.26221 0.95703-0.26221 0.83789 0 1.4424 0.35938 1.8047 1.0864l1.5781-0.50684c-0.66211-1.3091-1.8057-1.9585-3.4316-1.9585-1.002 0-1.7783 0.26465-2.3301 0.80176-0.54688 0.53467-0.82422 1.1665-0.82422 1.8906 0 0.46484 0.12109 0.87451 0.36328 1.2368 0.24805 0.35938 0.55273 0.62646 0.9082 0.79883 0.36133 0.1748 0.91504 0.36475 1.6602 0.56934 0.46289 0.13525 0.78906 0.26514 0.9873 0.40234 0.19238 0.1377 0.28613 0.31982 0.28613 0.55713 0 0.31494-0.14062 0.57471-0.42773 0.78174-0.28809 0.20508-0.67969 0.30469-1.1719 0.30469-0.98828 0-1.6484-0.41455-1.9688-1.2412l-1.752 0.42432zm-9.3359 0c0.57617 1.4663 1.8115 2.1982 3.7021 2.1982 1.1846 0 2.0742-0.26709 2.6777-0.79443 0.59863-0.52686 0.90332-1.1836 0.90332-1.9683 0-0.46436-0.12305-0.87402-0.37109-1.231-0.25391-0.35498-0.58789-0.63232-1.0156-0.82227-0.42773-0.19434-1.082-0.42188-1.9668-0.68408-0.38379-0.10986-0.64258-0.22998-0.76953-0.36719-0.12891-0.13721-0.19238-0.30713-0.19238-0.51709 0-0.29199 0.12988-0.52441 0.39355-0.69922 0.26074-0.1748 0.57617-0.26221 0.95703-0.26221 0.83398 0 1.4375 0.35938 1.8027 1.0864l1.5781-0.50684c-0.66016-1.3091-1.8027-1.9585-3.4355-1.9585-1.002 0-1.7773 0.26465-2.3262 0.80176-0.54883 0.53467-0.82422 1.1665-0.82422 1.8906 0 0.46484 0.12305 0.87451 0.36523 1.2368 0.24609 0.35938 0.55078 0.62646 0.9082 0.79883 0.36133 0.1748 0.91016 0.36475 1.6602 0.56934 0.46289 0.13525 0.79102 0.26514 0.98242 0.40234 0.19727 0.1377 0.29102 0.31982 0.29102 0.55713 0 0.31494-0.14258 0.57471-0.43164 0.78174-0.2832 0.20508-0.67578 0.30469-1.1719 0.30469-0.99023 0-1.6445-0.41455-1.9688-1.2412l-1.748 0.42432zm-1.5723-6.2314h-1.9229l-1.3857 8.3096h1.918l1.3906-8.3096zm0.49902-2.96h-1.9229l-0.33594 1.9932h1.9238l0.33496-1.9932zm-5.0381 2.96h-1.6191l-2.5664 5.7246-0.60254-5.7246h-1.6494l-2.4062 5.7397-0.75391-5.7397h-1.8848l1.2432 8.3096h1.6807l2.4023-5.9097 0.62891 5.9097h1.7188l3.8086-8.3096zm-17.249-3.1147c-1.2715 0-2.2725 0.32471-3.0107 0.97412-0.73047 0.64697-1.1016 1.4785-1.1016 2.4976 0 0.60205 0.13965 1.1167 0.41016 1.5562 0.27734 0.43213 0.63477 0.7666 1.0762 0.9917 0.43652 0.22949 1.0986 0.47168 1.9863 0.72949 0.63965 0.17969 1.0645 0.31934 1.2734 0.41943 0.21289 0.097168 0.39453 0.2373 0.5293 0.4292 0.13867 0.18506 0.21094 0.40479 0.21094 0.66211 0 0.44971-0.1875 0.84668-0.55859 1.1992-0.36914 0.34668-0.93555 0.52197-1.6992 0.52197-1.334 0-2.2207-0.57715-2.6621-1.7437l-1.8232 0.64453c0.66504 1.8506 2.1201 2.7773 4.3613 2.7773 1.4502 0 2.5557-0.37451 3.3037-1.1162 0.75781-0.74463 1.1328-1.6211 1.1328-2.6353 0-0.45215-0.097656-0.88184-0.29102-1.2915-0.19727-0.40723-0.49414-0.74658-0.89258-1.019-0.39551-0.2749-0.81836-0.47461-1.2588-0.59424l-1.5264-0.45459c-0.53906-0.14746-0.92578-0.33252-1.1641-0.54199-0.22852-0.20996-0.35059-0.48193-0.35059-0.81201 0-0.42969 0.17676-0.7915 0.51953-1.084 0.34863-0.28955 0.83203-0.43457 1.4502-0.43457 1.0293 0 1.7344 0.45996 2.125 1.3862l1.832-0.67432c-0.70898-1.5908-1.998-2.3877-3.8721-2.3877"/>
</svg>
